<!DOCTYPE svg PUBLIC "-//W3C//DTD SVG 20010904//EN" "http://www.w3.org/TR/2001/REC-SVG-20010904/DTD/svg10.dtd">
<svg version="1.0" xmlns="http://www.w3.org/2000/svg" width="53px" height="40px" viewBox="0 0 530 400" preserveAspectRatio="xMidYMid meet">
<g id="layer101" fill="#ffffff" stroke="none">
 <path d="M240 378 c-18 -20 -24 -21 -53 -10 -42 15 -42 15 -63 -5 -13 -13 -19 -14 -22 -5 -2 6 -19 12 -37 12 -62 0 -65 -4 -65 -96 0 -46 3 -84 8 -84 18 0 44 -92 39 -135 -5 -34 -3 -44 9 -49 27 -11 35 -7 45 24 10 28 14 30 65 30 42 0 54 -3 54 -15 0 -9 12 -21 26 -27 21 -10 27 -9 35 3 15 25 10 56 -13 73 -23 16 -23 16 -1 6 31 -14 33 -13 33 14 0 14 5 28 11 31 7 5 4 14 -8 28 -15 18 -15 20 -1 8 19 -14 42 -6 35 13 -3 6 8 12 27 13 43 2 143 20 155 28 6 3 11 33 11 65 0 50 -3 60 -20 65 -11 3 -25 3 -31 0 -5 -4 -16 1 -23 10 -9 12 -21 16 -39 13 -15 -3 -27 -1 -27 3 0 14 -68 10 -73 -3 -4 -10 -6 -10 -6 0 -2 20 -49 14 -71 -10z"/>
 </g>

</svg>